<?xml version="1.0" standalone="no"?>
<!DOCTYPE svg PUBLIC "-//W3C//DTD SVG 20010904//EN"
 "http://www.w3.org/TR/2001/REC-SVG-20010904/DTD/svg10.dtd">
<svg version="1.0" xmlns="http://www.w3.org/2000/svg"
 width="1024.000000pt" height="1024.000000pt" viewBox="0 0 1024.000000 1024.000000"
 preserveAspectRatio="xMidYMid meet">

<g transform="translate(0.000000,1024.000000) scale(0.100000,-0.100000)"
fill="#000000" stroke="none">
<path d="M4720 8635 l0 -465 80 0 80 0 0 335 c0 184 3 335 8 335 4 0 113 -154
242 -341 l235 -340 75 3 75 3 3 468 2 467 -85 0 -85 0 -2 -331 -3 -332 -225
329 -226 329 -87 3 -87 3 0 -466z"/>
<path d="M5102 8083 c-6 -16 -16 -48 -22 -73 -6 -25 -29 -99 -50 -165 -21 -66
-53 -168 -71 -227 l-32 -108 -69 -21 c-168 -53 -317 -178 -391 -328 -36 -73
-42 -95 -46 -163 l-3 -78 -82 -54 c-317 -213 -525 -531 -577 -886 -12 -83 -8
-458 5 -490 4 -11 -5 -21 -29 -35 -44 -23 -92 -77 -111 -122 -40 -94 -34 -246
16 -394 44 -132 59 -196 65 -289 9 -110 28 -181 62 -221 31 -36 114 -79 155
-79 l26 0 -5 -132 c-16 -374 74 -714 264 -1003 188 -285 505 -574 777 -706
109 -53 158 -53 260 0 211 109 471 321 637 520 205 245 321 478 381 770 18 88
22 144 23 326 l2 220 44 7 c80 14 156 85 179 167 5 20 10 64 10 98 0 84 21
187 67 323 35 106 38 124 38 225 -1 93 -4 118 -24 162 -21 48 -82 116 -124
139 -15 8 -15 17 -7 69 17 96 14 347 -5 460 -32 197 -114 394 -229 550 -106
143 -221 250 -351 329 l-60 36 -17 87 c-20 105 -86 244 -150 317 -60 69 -171
140 -255 161 -109 27 -110 28 -118 81 -3 26 -30 121 -60 213 -29 91 -58 191
-65 221 -13 54 -37 120 -44 120 -2 0 -8 -12 -14 -27z m189 -717 c190 -41 330
-161 375 -324 10 -34 15 -64 13 -66 -2 -2 -37 4 -77 15 -258 66 -773 62 -1021
-7 -23 -7 -24 -5 -18 30 8 53 49 136 87 180 39 43 132 109 195 137 105 47 313
63 446 35z m119 -476 c216 -28 324 -70 487 -193 263 -199 400 -443 443 -787
11 -93 14 -312 4 -382 -6 -42 -22 -60 -76 -86 -5 -2 -8 52 -8 120 0 139 -11
224 -42 318 -77 239 -216 372 -438 416 -104 21 -191 15 -367 -23 -113 -25
-148 -28 -298 -27 -146 0 -188 4 -295 27 -164 36 -273 43 -377 24 -180 -33
-303 -127 -387 -297 -63 -128 -86 -240 -86 -423 0 -76 -3 -137 -7 -135 -64 30
-70 40 -77 116 -11 138 -7 349 10 430 67 328 240 588 515 772 116 77 255 117
485 139 116 11 392 6 514 -9z m-582 -751 c257 -49 393 -48 600 3 128 33 324
32 405 -1 89 -35 178 -124 227 -225 73 -152 79 -217 66 -761 -9 -348 -12 -370
-79 -570 -51 -151 -103 -249 -167 -316 -79 -84 -104 -79 -214 39 -54 59 -117
103 -215 152 l-83 42 20 21 c11 12 26 41 33 64 11 39 10 47 -14 100 -39 88
-46 132 -53 343 -7 208 2 295 34 340 10 14 45 39 77 55 55 28 68 30 167 30
105 0 107 0 188 -42 111 -58 160 -56 160 7 0 106 -242 201 -433 171 -159 -26
-260 -97 -308 -216 -22 -56 -24 -72 -23 -250 2 -195 18 -330 50 -417 27 -73
28 -87 8 -110 -53 -59 -193 -78 -269 -35 -55 31 -68 60 -48 106 33 78 47 181
59 438 10 203 -17 302 -103 385 -119 115 -364 139 -540 53 -80 -39 -123 -83
-123 -124 0 -62 60 -68 147 -16 70 42 146 59 233 52 122 -10 188 -43 224 -112
26 -49 32 -213 18 -435 -8 -122 -14 -154 -36 -203 -33 -73 -33 -114 -1 -162
15 -20 25 -38 23 -40 -2 -1 -49 -26 -105 -54 -85 -44 -116 -66 -180 -133 -78
-79 -117 -108 -148 -108 -9 0 -42 26 -74 58 -69 70 -113 157 -184 365 l-51
152 -7 325 c-3 179 -10 343 -14 366 -11 65 12 271 41 360 77 236 243 354 474
337 36 -2 134 -18 218 -34z m-928 -818 c14 -10 36 -38 50 -62 l25 -44 0 -365
0 -365 -32 -3 c-72 -7 -98 33 -106 168 -7 116 -19 171 -65 320 -45 147 -51
263 -15 321 38 60 87 70 143 30z m2536 10 c21 -13 38 -36 49 -65 26 -68 15
-153 -40 -326 -42 -129 -48 -159 -54 -272 -9 -147 -19 -171 -81 -188 -22 -6
-45 -8 -50 -5 -6 4 -10 140 -10 359 0 400 3 419 71 481 44 40 70 43 115 16z
m-1094 -963 c82 -38 141 -81 233 -168 91 -86 131 -113 194 -130 39 -10 48 -9
96 15 69 33 172 142 224 236 l39 72 12 -44 c9 -31 11 -114 7 -274 -4 -209 -7
-239 -32 -334 -47 -179 -143 -381 -250 -522 -171 -228 -472 -492 -683 -598
l-63 -32 -56 26 c-113 51 -314 199 -457 335 -99 95 -268 304 -325 404 -99 173
-166 376 -190 571 -14 115 -14 405 0 442 l10 28 34 -63 c46 -87 102 -157 161
-202 123 -96 189 -84 339 60 99 94 145 130 214 165 74 37 122 44 291 42 133
-2 150 -5 202 -29z"/>
<path d="M4393 5190 c-31 -13 -39 -54 -18 -86 57 -87 326 -99 431 -19 42 32
51 60 27 87 -19 21 -42 21 -158 -1 -58 -11 -163 -4 -219 15 -21 8 -39 14 -40
13 0 0 -11 -4 -23 -9z"/>
<path d="M5760 5183 c-73 -19 -181 -21 -257 -4 -76 17 -110 10 -119 -25 -9
-33 33 -77 95 -101 70 -27 240 -25 302 3 95 44 119 112 49 136 -8 3 -40 -1
-70 -9z"/>
<path d="M5004 4174 c-82 -20 -164 -70 -188 -115 -40 -75 12 -125 84 -80 92
57 121 66 220 66 86 0 99 -3 140 -27 88 -53 107 -61 134 -54 37 9 45 50 19 96
-22 37 -104 94 -163 110 -64 19 -181 20 -246 4z"/>
<path d="M4566 7959 c-29 -34 -31 -47 -15 -82 21 -47 80 -60 123 -26 37 29 37
89 0 118 -39 31 -77 27 -108 -10z"/>
<path d="M5580 7965 c-47 -50 -12 -135 56 -135 35 0 74 42 74 80 0 69 -83 105
-130 55z"/>
<path d="M4135 7855 c-50 -49 -15 -135 55 -135 41 0 80 39 80 80 0 41 -39 80
-80 80 -19 0 -40 -9 -55 -25z"/>
<path d="M6040 7873 c-54 -20 -69 -92 -27 -131 48 -45 137 -10 137 53 0 50
-63 95 -110 78z"/>
<path d="M3725 7665 c-33 -33 -33 -78 1 -112 49 -49 134 -10 134 62 0 67 -87
99 -135 50z"/>
<path d="M6465 7682 c-35 -7 -65 -43 -65 -77 0 -71 83 -103 138 -52 53 50 0
144 -73 129z"/>
<path d="M2693 7503 c12 -21 71 -113 132 -205 60 -92 142 -215 180 -275 39
-59 75 -108 81 -108 6 0 41 36 76 80 36 44 86 99 112 123 25 23 46 45 46 47 0
3 -37 23 -82 46 -76 38 -245 137 -465 272 -51 32 -95 57 -97 57 -3 0 5 -17 17
-37z"/>
<path d="M7450 7483 c-41 -30 -147 -100 -235 -156 -172 -109 -285 -187 -285
-197 0 -3 23 -28 51 -55 28 -28 77 -82 109 -122 l58 -72 98 162 c202 334 294
488 294 493 0 10 -20 -1 -90 -53z"/>
<path d="M3390 7437 c-53 -27 -51 -109 3 -135 72 -34 141 58 87 116 -12 12
-25 22 -30 22 -4 0 -14 2 -22 5 -7 3 -24 -1 -38 -8z"/>
<path d="M6783 7425 c-29 -20 -37 -59 -18 -95 39 -75 151 -34 139 50 -8 52
-75 77 -121 45z"/>
<path d="M2850 6893 c-32 -12 -60 -47 -60 -75 0 -36 40 -78 73 -78 49 0 90 65
71 115 -5 13 -56 47 -66 44 -2 0 -10 -3 -18 -6z"/>
<path d="M7332 6847 c-45 -48 -11 -127 55 -127 32 0 73 42 73 75 0 35 -42 75
-78 75 -17 0 -37 -9 -50 -23z"/>
<path d="M2591 6494 c-25 -32 -27 -62 -5 -92 37 -53 108 -44 133 16 33 79 -75
143 -128 76z"/>
<path d="M7551 6474 c-12 -15 -21 -38 -21 -51 0 -34 42 -73 80 -73 38 0 80 39
80 73 0 42 -36 77 -80 77 -30 0 -43 -6 -59 -26z"/>
<path d="M2454 6105 c-75 -31 -49 -145 32 -145 39 0 74 36 74 76 -1 58 -53 92
-106 69z"/>
<path d="M7735 6089 c-53 -30 -62 -94 -19 -128 35 -28 69 -26 99 4 30 29 34
84 8 108 -25 22 -64 29 -88 16z"/>
<path d="M1194 5553 c3 -10 58 -217 122 -460 l117 -443 93 0 c80 0 93 2 98 18
3 9 33 112 67 227 33 116 75 258 93 318 17 59 33 107 36 107 3 0 43 -151 89
-335 l85 -335 100 0 101 0 119 443 c65 243 121 450 124 460 4 15 -5 17 -81 17
-73 0 -86 -3 -91 -17 -2 -10 -41 -168 -86 -350 -45 -183 -86 -333 -91 -333 -5
0 -9 8 -9 18 0 9 -37 167 -82 350 l-82 333 -91 -3 -90 -3 -93 -335 c-115 -408
-102 -370 -112 -345 -5 11 -44 169 -88 350 l-78 330 -88 3 c-80 3 -87 1 -82
-15z"/>
<path d="M8030 5110 l0 -460 264 0 264 0 -2 68 -1 67 -178 0 -177 0 0 133 0
132 155 0 155 0 0 60 0 60 -155 0 -155 0 0 130 0 130 179 0 178 0 2 70 2 70
-266 0 -265 0 0 -460z"/>
<path d="M2460 4333 c-57 -22 -70 -96 -23 -133 50 -39 123 -3 123 60 0 49 -56
90 -100 73z"/>
<path d="M7705 4315 c-49 -48 -16 -125 54 -125 48 0 75 28 75 77 0 68 -80 98
-129 48z"/>
<path d="M7549 3911 c-31 -32 -34 -45 -19 -86 11 -28 64 -56 89 -47 71 24 83
115 20 147 -40 21 -57 19 -90 -14z"/>
<path d="M2613 3920 c-47 -19 -57 -87 -18 -125 13 -14 36 -25 50 -25 67 0 101
98 49 139 -29 23 -46 25 -81 11z"/>
<path d="M2816 3539 c-51 -40 -27 -129 36 -129 40 0 57 10 74 42 13 25 13 35
3 59 -21 52 -68 63 -113 28z"/>
<path d="M7342 3553 c-20 -8 -44 -62 -37 -83 9 -27 53 -60 82 -60 32 0 73 42
73 75 0 51 -66 89 -118 68z"/>
<path d="M3011 3311 c-30 -47 -96 -154 -147 -238 -51 -84 -115 -187 -143 -229
-28 -43 -49 -79 -47 -82 3 -2 77 41 166 95 89 54 232 139 318 188 86 50 158
96 160 103 4 12 -176 195 -228 232 l-25 17 -54 -86z"/>
<path d="M7126 3375 c-9 -14 -60 -70 -113 -125 -53 -56 -92 -104 -87 -109 37
-32 624 -386 624 -376 0 1 -46 72 -103 156 -56 85 -145 227 -197 317 -51 89
-97 162 -101 162 -4 0 -14 -11 -23 -25z"/>
<path d="M3358 2983 c-26 -29 -30 -60 -14 -91 25 -48 78 -57 114 -19 28 29 29
87 4 110 -25 22 -85 22 -104 0z"/>
<path d="M6777 2982 c-25 -28 -21 -78 8 -107 13 -14 31 -25 39 -25 28 0 64 22
75 47 16 34 14 47 -10 77 -25 32 -86 37 -112 8z"/>
<path d="M6425 2748 c-38 -34 -39 -82 -1 -115 37 -31 71 -29 107 6 35 35 37
61 7 95 -34 38 -78 44 -113 14z"/>
<path d="M3726 2739 c-19 -15 -26 -30 -26 -55 0 -69 76 -99 125 -49 30 30 32
64 4 99 -25 32 -66 34 -103 5z"/>
<path d="M6038 2565 c-74 -41 -26 -162 56 -141 32 8 68 63 60 91 -15 51 -71
74 -116 50z"/>
<path d="M4121 2544 c-26 -34 -27 -64 -1 -92 43 -45 109 -34 130 24 29 74 -79
131 -129 68z"/>
<path d="M5625 2462 c-32 -6 -65 -43 -65 -73 0 -36 28 -68 67 -75 27 -5 37 -1
63 24 35 35 38 60 10 94 -21 28 -43 36 -75 30z"/>
<path d="M4550 2438 c-28 -30 -25 -65 9 -99 36 -36 73 -37 106 -4 33 32 31 60
-4 96 -36 36 -81 39 -111 7z"/>
<path d="M4983 2182 c-110 -39 -175 -106 -192 -198 -26 -138 57 -235 243 -284
161 -42 191 -54 225 -87 29 -29 33 -38 27 -66 -15 -79 -79 -122 -181 -121 -83
1 -143 24 -204 79 -47 43 -52 42 -102 -36 l-31 -49 23 -20 c48 -40 158 -88
230 -100 151 -26 274 5 350 87 53 58 72 105 72 179 -1 140 -69 198 -300 255
-144 35 -197 71 -197 134 0 67 71 115 169 115 61 0 111 -17 161 -55 18 -14 35
-25 37 -25 3 0 24 23 48 51 l43 51 -25 20 c-13 11 -53 33 -88 50 -55 27 -77
32 -160 35 -75 3 -107 0 -148 -15z"/>
</g>
</svg>
